<svg xmlns="http://www.w3.org/2000/svg" width="12.943" height="14.777" viewBox="0 0 12.943 14.777">
  <g id="paper" transform="translate(233.006 118.211)">
    <path id="Path_56954" data-name="Path 56954" d="M-233.006-111.338c0-2.356,0-3.668,0-6.024a.74.74,0,0,1,.851-.845q4.188,0,8.376,0a.926.926,0,0,1,.7.287q1.369,1.382,2.75,2.751a.851.851,0,0,1,.261.637c0,3.781,0,6.518,0,10.3a.725.725,0,0,1-.8.8q-5.671,0-11.342,0a.729.729,0,0,1-.8-.818Q-233.007-107.8-233.006-111.338Zm11.5,6.457c0-.091,0-.167,0-.243q0-1.213,0-2.426c0-2.548,0-4.053,0-6.6a.419.419,0,0,0-.105-.269c-.734-.745-1.478-1.481-2.214-2.224a.41.41,0,0,0-.321-.129q-3.6.005-7.2,0c-.068,0-.135.006-.206.009v11.878Z" transform="translate(0 0)" fill="#4a6dff"/>
    <path id="Path_56955" data-name="Path 56955" d="M-183.467-24.444c-.7,0-1.4,0-2.1,0a.718.718,0,0,1-.744-.889.709.709,0,0,1,.7-.548c.243-.008.487,0,.731,0,1.174,0,2.348,0,3.522,0a.718.718,0,0,1,.751.9.725.725,0,0,1-.768.541c-.7,0-1.4,0-2.1,0Z" transform="translate(-43.082 -87.179)" fill="#4a6dff"/>
    <path id="Path_56956" data-name="Path 56956" d="M-183.467-24.444c-.7,0-1.4,0-2.1,0a.718.718,0,0,1-.744-.889.709.709,0,0,1,.7-.548c.243-.008.487,0,.731,0,1.174,0,2.348,0,3.522,0a.718.718,0,0,1,.751.9.725.725,0,0,1-.768.541c-.7,0-1.4,0-2.1,0Z" transform="translate(-43.082 -84.18)" fill="#4a6dff"/>
  </g>
</svg>
