<svg xmlns="http://www.w3.org/2000/svg" xmlns:xlink="http://www.w3.org/1999/xlink" width="441" height="378" viewBox="0 0 441 378">
  <defs>
    <clipPath id="clip-path">
      <rect id="Rectangle_2957" data-name="Rectangle 2957" width="441" height="378" transform="translate(295 1216)" fill="#fff" stroke="#707070" stroke-width="1"/>
    </clipPath>
  </defs>
  <g id="Future" transform="translate(-295 -1216)" clip-path="url(#clip-path)">
    <g id="Group_46687" data-name="Group 46687" transform="translate(-245.074 629.81)">
      <g id="Group_46677" data-name="Group 46677" transform="translate(494.074 552.474)">
        <g id="Group_46683" data-name="Group 46683">
          <g id="Group_46684" data-name="Group 46684" transform="translate(0 3)">
            <path id="Path_58001" data-name="Path 58001" d="M302.74,9.819,90.476,0,0,125.894S181.628,275.526,193.88,270.069c36.186-16.119-30.713-106.988-19.988-86.244,2.936,5.679,1.633,6.667,4.45,18.745,2.8,12,115.331,98.418,115.331,98.418L432.319,174.613Z" transform="matrix(0.883, -0.469, 0.469, 0.883, 0, 202.961)" fill="#ecf3fe" opacity="0.08"/>
            <path id="Path_58002" data-name="Path 58002" d="M1391.246,3046.016l.933,7.228s.117,2.915,2.681,3.148,136.475,14.708,136.475,14.708Z" transform="translate(-1218.745 -2701.12)" fill="#3a7ec1" opacity="0.2" style="mix-blend-mode: multiply;isolation: isolate"/>
            <path id="Path_58003" data-name="Path 58003" d="M669.78,2005.6l-.17-26.742,1.4-.009.155,24.41,45.329-24.558-45.6-18.8.05,7.876-1.4.009-.063-9.98,50.271,20.719Z" transform="translate(-536.029 -1725.344)" fill="#25d8d1" opacity="0.4"/>
            <path id="Path_58005" data-name="Path 58005" d="M1761.474,1802.991c-6.491,16.039-27.654,68.279-38.5,94.538-1.095,2.647-2.084,5.029-2.941,7.086a53.978,53.978,0,0,1-3.263,6.582,39.061,39.061,0,0,1-4.924,6.715c-7.121,7.708-14.839,8.747-18.945,8.646a.015.015,0,0,1-.017,0h-.035a15.242,15.242,0,0,1-2.9-.315l-3.546-.969-25.583-6.981-90.142-24.6,25.982-70.818,1.955-5.379,14.434-39.755a4.894,4.894,0,0,1,5.389-3.158l103.11,16.794,10.4,1.7,26.374,4.295A4.128,4.128,0,0,1,1761.474,1802.991Z" transform="translate(-1380.254 -1556.576)" fill="#3557e5"/>
            <path id="Path_58006" data-name="Path 58006" d="M1152.133,1167.777l-29.83-147.4a7.544,7.544,0,0,0-8.891-5.9l-116.623,23.6a7.544,7.544,0,0,0-5.9,8.891l29.83,147.4a7.544,7.544,0,0,0,8.891,5.9l116.623-23.6A7.544,7.544,0,0,0,1152.133,1167.777Z" transform="translate(-858.228 -872.29)" fill="#3a7ec1" opacity="0.2" style="mix-blend-mode: multiply;isolation: isolate"/>
            <path id="Path_58007" data-name="Path 58007" d="M1118.166,1028.128a8.25,8.25,0,0,1-8.063-6.611l-29.83-147.4a8.253,8.253,0,0,1,6.445-9.715l116.623-23.6a8.253,8.253,0,0,1,9.715,6.445l29.83,147.4a8.253,8.253,0,0,1-6.445,9.715l-116.623,23.6A8.327,8.327,0,0,1,1118.166,1028.128Zm86.812-186.093a6.85,6.85,0,0,0-1.36.137L1087,865.773a6.853,6.853,0,0,0-5.351,8.067l29.83,147.4a6.844,6.844,0,0,0,8.066,5.351l116.623-23.6a6.853,6.853,0,0,0,5.351-8.067l-29.83-147.4A6.857,6.857,0,0,0,1204.978,842.035Z" transform="translate(-938.673 -715.94)" fill="#aab4db" opacity="0.1"/>
            <g id="Group_46666" data-name="Group 46666" transform="translate(136.295 133.75)">
              <path id="Path_58008" data-name="Path 58008" d="M1184.122,1093.659l-116.623,23.6a7.544,7.544,0,0,1-8.891-5.9l-29.83-147.4a7.545,7.545,0,0,1,5.9-8.891l116.623-23.6a7.544,7.544,0,0,1,8.891,5.9l29.83,147.4A7.544,7.544,0,0,1,1184.122,1093.659Z" transform="translate(-1028.627 -931.319)" fill="#fff"/>
              <g id="Group_46665" data-name="Group 46665" transform="translate(8.059 24.175)">
                <circle id="Ellipse_173" data-name="Ellipse 173" cx="21.951" cy="21.951" r="21.951" transform="translate(0 31.043) rotate(-45)" fill="#ecf3fe"/>
                <g id="Group_46664" data-name="Group 46664" transform="translate(18.778 13.611)">
                  <path id="Path_58009" data-name="Path 58009" d="M1364.715,1569.971a17.3,17.3,0,0,1-3.377,3.006,16.726,16.726,0,0,1-2.011,1.179,16.96,16.96,0,0,1-2.322.957,17.476,17.476,0,0,1-13.2-.9,10.122,10.122,0,0,1,5.013-6.029h0a.007.007,0,0,1,.006,0,9.43,9.43,0,0,1,1.307-.559.515.515,0,0,1,.054-.02,9.738,9.738,0,0,1,1.234-.334l3.58-.726a9.73,9.73,0,0,1,1.266-.172.273.273,0,0,1,.058,0,9.533,9.533,0,0,1,1.424.006h0v0A10.113,10.113,0,0,1,1364.715,1569.971Z" transform="translate(-1339.168 -1540.721)" fill="#6582fd"/>
                  <path id="Path_58010" data-name="Path 58010" d="M1322.386,1317.78l2.338,11.533a4.692,4.692,0,0,1-3.666,5.533l-10.841,2.2a4.694,4.694,0,0,1-5.531-3.669l-2.338-11.534c-2.076-10.244,8.037-11.812,8.037-11.812a12.153,12.153,0,0,1,5.391.078c2.512.647,5.2,2.4,6.379,6.7C1322.24,1317.118,1322.318,1317.442,1322.386,1317.78Z" transform="translate(-1301.601 -1309.763)" fill="#302f2f"/>
                  <path id="Path_58011" data-name="Path 58011" d="M1409.328,1530.108l.688,3.391a3.2,3.2,0,0,1-6.191,1.255l-.687-3.392a2.393,2.393,0,0,1,.316-1.712,2.727,2.727,0,0,1,.245-.351,3.171,3.171,0,0,1,.618-.58,3.657,3.657,0,0,1,2.9-.587,3.148,3.148,0,0,1,.793.293l.038.02a2.733,2.733,0,0,1,.326.209A2.392,2.392,0,0,1,1409.328,1530.108Z" transform="translate(-1392.539 -1506.251)" fill="#f4b698"/>
                  <path id="Path_58012" data-name="Path 58012" d="M1341.773,1360.313l1,4.939a8.267,8.267,0,0,1-3.772,8.657l.264,1.3a8.157,8.157,0,0,1-2.665,1.051l-.662.134a8.141,8.141,0,0,1-2.864.069l-.264-1.3a8.268,8.268,0,0,1-6.844-6.506l-1-4.939a8.264,8.264,0,0,1,6.444-9.671l.662-.134a8.188,8.188,0,0,1,5.376.744h0A8.238,8.238,0,0,1,1341.773,1360.313Z" transform="translate(-1322.073 -1349.359)" opacity="0.28"/>
                  <path id="Path_58013" data-name="Path 58013" d="M1339.158,1347.3l1.257,6.2a8.189,8.189,0,0,1-.5,4.866l0,.007a8.742,8.742,0,0,1-.513,1,8.3,8.3,0,0,1-2.749,2.788,8.154,8.154,0,0,1-2.666,1.05l-.662.134a8.125,8.125,0,0,1-2.862.07,8.269,8.269,0,0,1-6.847-6.507l-1.251-6.171c-.017-.086-.032-.172-.047-.258a8.256,8.256,0,0,1,6.477-9.484l.662-.134a8.181,8.181,0,0,1,5.21.665,8.345,8.345,0,0,1,3,2.461A8.105,8.105,0,0,1,1339.158,1347.3Z" transform="translate(-1319.714 -1337.611)" fill="#f4b698"/>
                  <g id="Group_46662" data-name="Group 46662" transform="translate(19.451 9.657)">
                    <path id="Path_58014" data-name="Path 58014" d="M1496.1,1409.127a3.3,3.3,0,0,1-2.578,3.889l-1.311-6.468a3.284,3.284,0,0,1,1.316,0l.006,0A3.3,3.3,0,0,1,1496.1,1409.127Z" transform="translate(-1492.208 -1406.482)" fill="#f4b698"/>
                    <path id="Path_58015" data-name="Path 58015" d="M1497.114,1420.706a2.043,2.043,0,0,1-1.6,2.408l-.812-4A2.044,2.044,0,0,1,1497.114,1420.706Z" transform="translate(-1494.457 -1417.812)" fill="#e29586"/>
                  </g>
                  <path id="Path_58016" data-name="Path 58016" d="M1402.933,1566.626v0l-.744,8.744a17.559,17.559,0,0,1-4.1.831l-4.09-7.764v0l1.709-.346.073.05,3.262,2.242,2.136-3.336.048-.074Z" transform="translate(-1384.353 -1540.979)" fill="#4a6dff"/>
                  <g id="Group_46663" data-name="Group 46663" transform="translate(0 13.13)">
                    <path id="Path_58017" data-name="Path 58017" d="M1300.045,1441.263l1.311,6.468a3.3,3.3,0,0,1-2.02-6.238c.047-.022.1-.043.145-.061l.079-.028A3.2,3.2,0,0,1,1300.045,1441.263Z" transform="translate(-1297.402 -1441.263)" fill="#f4b698"/>
                    <path id="Path_58018" data-name="Path 58018" d="M1310.023,1456a2.043,2.043,0,0,0,2.408,1.6l-.812-4A2.043,2.043,0,0,0,1310.023,1456Z" transform="translate(-1308.726 -1452.363)" fill="#e29586"/>
                  </g>
                  <path id="Path_58020" data-name="Path 58020" d="M1444.52,1570.375l2.748,1.217,1.143-4.974Z" transform="translate(-1429.831 -1540.971)" fill="#363636" opacity="0.2"/>
                  <path id="Path_58021" data-name="Path 58021" d="M1448.41,1565.739l-1.217,4.823-2.673-1.066,2.182-3.411.285-.443Z" transform="translate(-1429.831 -1540.093)" fill="#eee"/>
                  <path id="Path_58022" data-name="Path 58022" d="M1394,1584.752l2.966,4.142,2.078-2.195Z" transform="translate(-1384.358 -1557.296)" fill="#363636" opacity="0.2"/>
                  <path id="Path_58023" data-name="Path 58023" d="M1399.047,1580.9l-2.045,2.022-3-3.969,1.273-.644.435.3Z" transform="translate(-1384.358 -1551.491)" fill="#eee"/>
                  <path id="Path_58024" data-name="Path 58024" d="M1447.548,1327.465c-5.936,1.656-6.468-3.912-6.379-6.7C1443.68,1321.41,1446.373,1323.161,1447.548,1327.465Z" transform="translate(-1426.807 -1319.665)" fill="#302f2f"/>
                  <path id="Path_58025" data-name="Path 58025" d="M1322.06,1328.341c-.14.374-1.459,4.532-5.2,5.29s-9.217,4.205-8.644,7.964-6.984-10.417,4.128-13.895S1322.06,1328.341,1322.06,1328.341Z" transform="translate(-1305.355 -1324.654)" fill="#302f2f"/>
                </g>
              </g>
              <path id="Path_58026" data-name="Path 58026" d="M1703.976,1167.581l-5.3-26.173,55.807-11.294,5.3,26.173Zm-2.2-24.117,4.253,21.018,50.651-10.251-4.253-21.017Z" transform="translate(-1631.776 -1110.264)" fill="#ecf3fe"/>
              <path id="Path_58027" data-name="Path 58027" d="M1781.292,1554.981h0a3.957,3.957,0,0,1-4.65-3.085h0a3.957,3.957,0,0,1,3.084-4.65h0a3.957,3.957,0,0,1,4.65,3.085h0A3.957,3.957,0,0,1,1781.292,1554.981Z" transform="translate(-1701.884 -1485.677)" fill="#c8d9f5" opacity="0.418"/>
              <path id="Path_58028" data-name="Path 58028" d="M1898.019,1531.358h0a3.958,3.958,0,0,1-4.65-3.085h0a3.957,3.957,0,0,1,3.085-4.65h0a3.957,3.957,0,0,1,4.65,3.084h0A3.957,3.957,0,0,1,1898.019,1531.358Z" transform="translate(-1806.956 -1464.413)" fill="#52d1bd"/>
              <path id="Path_58029" data-name="Path 58029" d="M2014.745,1507.735h0a3.957,3.957,0,0,1-4.65-3.085h0a3.957,3.957,0,0,1,3.085-4.65h0a3.957,3.957,0,0,1,4.65,3.085h0A3.957,3.957,0,0,1,2014.745,1507.735Z" transform="translate(-1912.028 -1443.149)" fill="#52d1bd"/>
              <path id="Path_58030" data-name="Path 58030" d="M2131.472,1484.113h0a3.958,3.958,0,0,1-4.65-3.085h0a3.957,3.957,0,0,1,3.085-4.65h0a3.957,3.957,0,0,1,4.65,3.085h0A3.957,3.957,0,0,1,2131.472,1484.113Z" transform="translate(-2017.1 -1421.885)" fill="#52d1bd"/>
              <path id="Path_58031" data-name="Path 58031" d="M2248.2,1460.49h0a3.958,3.958,0,0,1-4.65-3.085h0a3.957,3.957,0,0,1,3.085-4.65h0a3.957,3.957,0,0,1,4.65,3.085h0A3.958,3.958,0,0,1,2248.2,1460.49Z" transform="translate(-2122.172 -1400.621)" fill="#ecf3fe"/>
              <path id="Path_58032" data-name="Path 58032" d="M1330.151,1748.933l-49.947,10.108a3.381,3.381,0,0,1-3.984-2.643h0a3.381,3.381,0,0,1,2.643-3.984l49.946-10.108a3.381,3.381,0,0,1,3.984,2.643h0A3.381,3.381,0,0,1,1330.151,1748.933Z" transform="translate(-1251.438 -1661.27)" fill="#ecf3fe"/>
              <path id="Path_58033" data-name="Path 58033" d="M1544.778,1788.925l-86.488,17.5a3.381,3.381,0,0,1-3.984-2.643h0a3.381,3.381,0,0,1,2.643-3.984l86.488-17.5a3.381,3.381,0,0,1,3.984,2.643h0A3.381,3.381,0,0,1,1544.778,1788.925Z" transform="translate(-1411.742 -1697.269)" fill="#ecf3fe"/>
              <path id="Path_58034" data-name="Path 58034" d="M1439.923,1933.117l-101.356,20.512a3.381,3.381,0,0,1-3.984-2.643h0a3.381,3.381,0,0,1,2.643-3.984l101.356-20.512a3.38,3.38,0,0,1,3.984,2.643h0A3.381,3.381,0,0,1,1439.923,1933.117Z" transform="translate(-1303.973 -1827.063)" fill="#ecf3fe"/>
              <path id="Path_58035" data-name="Path 58035" d="M1469.1,2077.308l-101.356,20.512a3.381,3.381,0,0,1-3.984-2.643h0a3.381,3.381,0,0,1,2.643-3.984l101.356-20.512a3.381,3.381,0,0,1,3.984,2.643h0A3.38,3.38,0,0,1,1469.1,2077.308Z" transform="translate(-1330.24 -1956.858)" fill="#ecf3fe"/>
              <path id="Path_58036" data-name="Path 58036" d="M1478.9,2260.8l-81.966,16.588a3.381,3.381,0,0,1-3.984-2.643h0a3.381,3.381,0,0,1,2.643-3.984l81.966-16.588a3.38,3.38,0,0,1,3.984,2.643h0A3.381,3.381,0,0,1,1478.9,2260.8Z" transform="translate(-1356.507 -2122.028)" fill="#ecf3fe"/>
              <path id="Path_58037" data-name="Path 58037" d="M1527.466,2365.692,1426.111,2386.2a3.381,3.381,0,0,1-3.984-2.643h0a3.381,3.381,0,0,1,2.643-3.984l101.356-20.512a3.381,3.381,0,0,1,3.984,2.643h0A3.381,3.381,0,0,1,1527.466,2365.692Z" transform="translate(-1382.776 -2216.447)" fill="#ecf3fe"/>
            </g>
            <path id="Path_58038" data-name="Path 58038" d="M2379.073,1124.534l-105.5-55.034a7.544,7.544,0,0,0-10.178,3.2l-69.557,133.335a7.544,7.544,0,0,0,3.2,10.178l105.5,55.034a7.545,7.545,0,0,0,10.178-3.2l69.557-133.335A7.544,7.544,0,0,0,2379.073,1124.534Z" transform="translate(-1940.433 -921.181)" fill="#3a7ec1" opacity="0.2" style="mix-blend-mode: multiply;isolation: isolate"/>
            <path id="Path_58039" data-name="Path 58039" d="M2361.251,2560.651a6.853,6.853,0,0,0,4.953,8.317L2405.757,2579l-43.414-22.648Z" transform="translate(-2091.708 -2260.343)" fill="none"/>
            <path id="Path_58040" data-name="Path 58040" d="M2662.8,1087.939a6.9,6.9,0,0,0-1.694-.213,6.853,6.853,0,0,0-6.623,5.166l-8.741,34.479,20.161-38.646Z" transform="translate(-2347.981 -938.359)" fill="none"/>
            <path id="Path_58041" data-name="Path 58041" d="M3420.556,2116.05a6.851,6.851,0,0,0,8.317-4.952l22.916-90.391-47.577,91.2Z" transform="translate(-3030.722 -1778.184)" fill="none"/>
            <path id="Path_58042" data-name="Path 58042" d="M3513.215,1268.536a6.8,6.8,0,0,0-4.2-3.133l-51.326-13.012,54.48,28.421,1.8-7.092A6.8,6.8,0,0,0,3513.215,1268.536Z" transform="translate(-3078.861 -1086.583)" fill="none"/>
            <path id="Path_58043" data-name="Path 58043" d="M3460.5,1240.094a6.845,6.845,0,0,1,4.953,8.317l-1.8,7.092,1.274.665,1.879-7.413a8.243,8.243,0,0,0-5.965-10.016l-57.051-14.464,5.381,2.807Z" transform="translate(-3030.347 -1061.274)" fill="#60629f"/>
            <path id="Path_58044" data-name="Path 58044" d="M2629.173,1080.276a6.853,6.853,0,0,1,6.623-5.166,6.9,6.9,0,0,1,1.695.213l3.1.786.665-1.274-3.424-.868a8.243,8.243,0,0,0-10.017,5.965l-10.192,40.2,2.807-5.381Z" transform="translate(-2322.673 -925.743)" fill="#60629f"/>
            <path id="Path_58045" data-name="Path 58045" d="M2353.592,2562.975a6.853,6.853,0,0,1-4.953-8.317l1.091-4.3-1.275-.665-1.172,4.625a8.253,8.253,0,0,0,5.965,10.017l45.278,11.479-5.382-2.808Z" transform="translate(-2079.096 -2254.349)" fill="#444"/>
            <path id="Path_58046" data-name="Path 58046" d="M3422.88,2062.583a6.852,6.852,0,0,1-8.317,4.953l-16.344-4.144-.665,1.274,16.666,4.225a8.238,8.238,0,0,0,10.017-5.965l24.367-96.116-2.807,5.381Z" transform="translate(-3024.729 -1729.669)" fill="#60629f"/>
            <path id="Path_58047" data-name="Path 58047" d="M2175.424,1621.838a7.544,7.544,0,0,0,3.2,10.178l14.59,7.611L2218.8,1538.68Z" transform="translate(-1923.854 -1344.287)" fill="#f4b545"/>
            <path id="Path_58048" data-name="Path 58048" d="M2867.035,996.367a7.544,7.544,0,0,0-10.178,3.2l-2.543,4.876,54.864,13.909Z" transform="translate(-2535.729 -855.351)" fill="#6582fd"/>
            <path id="Path_58049" data-name="Path 58049" d="M2903.617,2832.6a7.544,7.544,0,0,0,10.178-3.2l2.382-4.566-53.4-13.537Z" transform="translate(-2543.352 -2489.833)" fill="#6582fd"/>
            <path id="Path_58050" data-name="Path 58050" d="M3921.751,1544.853l-2.217-1.156-10.71,42.247,16.126-30.912A7.545,7.545,0,0,0,3921.751,1544.853Z" transform="translate(-3484.95 -1348.802)" fill="#6582fd"/>
            <path id="Path_58051" data-name="Path 58051" d="M2536.767,1141.6l-12.241,48.292-47.578,91.2-59.442-15.07-43.413-22.649,27.122-106.992,17.914-34.337.682-1.3,1.567-3,38.706,9.81.01,0,16.78,4.256.017,0,5.4,1.368Z" transform="translate(-2103.457 -947.372)" fill="#6582fd"/>
            <path id="Path_58052" data-name="Path 58052" d="M3892.952,1537.036l-12.243,48.293,2.807-5.381,10.71-42.247Z" transform="translate(-3459.642 -1342.807)" fill="#60629f"/>
            <path id="Path_58053" data-name="Path 58053" d="M2389.713,1484.784l-2.807,5.381-25.592,100.947,1.275.665Z" transform="translate(-2091.954 -1295.772)" fill="#f4b545"/>
            <path id="Path_58054" data-name="Path 58054" d="M2808.885,2783.177l5.381,2.807,53.4,13.537.665-1.274Z" transform="translate(-2494.837 -2464.523)" fill="#60629f"/>
            <path id="Path_58055" data-name="Path 58055" d="M2887,1139.585l-4.1-.689-.018,0-57.745-9.761.682-1.3,40.272,6.806.01,0,16.868,2.85Z" transform="translate(-2509.469 -974.456)" fill="#4f6ef5"/>
            <g id="Group_46671" data-name="Group 46671" transform="translate(266.604 164.326)">
              <path id="Path_58056" data-name="Path 58056" d="M3335.649,1495.106l-50.482-26.335,12.351-23.676L3348,1471.431Zm-46.934-27.45,45.818,23.9,9.918-19.012-45.818-23.9Z" transform="translate(-3190.167 -1424.372)" fill="#a5b6ff" opacity="0.367"/>
              <path id="Path_58059" data-name="Path 58059" d="M3457.816,1864.028h0a3.957,3.957,0,0,1-1.673-5.323h0a3.957,3.957,0,0,1,5.323-1.673h0a3.958,3.958,0,0,1,1.674,5.323h0A3.957,3.957,0,0,1,3457.816,1864.028Z" transform="translate(-3346.881 -1792.636)" fill="#a5b6ff"/>
              <path id="Path_58061" data-name="Path 58061" d="M2820.638,1907.438l-78.236-40.813a3.381,3.381,0,0,1-1.434-4.561h0a3.381,3.381,0,0,1,4.561-1.434l78.235,40.813A3.381,3.381,0,0,1,2825.2,1906h0A3.38,3.38,0,0,1,2820.638,1907.438Z" transform="translate(-2699.959 -1798.071)" fill="#a5b6ff"/>
              <path id="Path_58062" data-name="Path 58062" d="M2631.347,1974.62l-91.685-47.83a3.381,3.381,0,0,1-1.434-4.561h0a3.381,3.381,0,0,1,4.561-1.434l91.685,47.83a3.381,3.381,0,0,1,1.434,4.561h0A3.381,3.381,0,0,1,2631.347,1974.62Z" transform="translate(-2517.463 -1852.229)" fill="#a5b6ff"/>
              <path id="Path_58063" data-name="Path 58063" d="M2563.3,2105.053l-91.685-47.83a3.381,3.381,0,0,1-1.434-4.561h0a3.381,3.381,0,0,1,4.561-1.434l91.685,47.83a3.381,3.381,0,0,1,1.434,4.562h0A3.381,3.381,0,0,1,2563.3,2105.053Z" transform="translate(-2456.213 -1969.639)" fill="#a5b6ff"/>
              <path id="Path_58064" data-name="Path 58064" d="M2477.721,2226.337l-74.146-38.68a3.381,3.381,0,0,1-1.434-4.561h0a3.381,3.381,0,0,1,4.561-1.434l74.145,38.68a3.38,3.38,0,0,1,1.434,4.561h0A3.38,3.38,0,0,1,2477.721,2226.337Z" transform="translate(-2394.964 -2087.049)" fill="#a5b6ff"/>
              <path id="Path_58065" data-name="Path 58065" d="M2427.216,2365.92l-91.685-47.83a3.381,3.381,0,0,1-1.434-4.561h0a3.381,3.381,0,0,1,4.561-1.434l91.685,47.83a3.381,3.381,0,0,1,1.434,4.561h0A3.381,3.381,0,0,1,2427.216,2365.92Z" transform="translate(-2333.714 -2204.459)" fill="#a5b6ff"/>
              <g id="Group_46670" data-name="Group 46670" transform="translate(48.751)">
                <path id="Path_58120" data-name="Path 58120" d="M21.875,0A21.875,21.875,0,1,1,0,21.875,21.875,21.875,0,0,1,21.875,0Z" fill="#869dff"/>
                <g id="Group_46669" data-name="Group 46669" transform="translate(4.746 4.974)">
                  <path id="Path_58066" data-name="Path 58066" d="M2877.259,1542.714a3.292,3.292,0,0,1-.318-.181l-.006,0a18.642,18.642,0,0,1-7.437-7.655,10.3,10.3,0,0,1,8.073-1.754l.006,0a9.15,9.15,0,0,1,1.386.391,10.063,10.063,0,0,1,1.241.541l3.287,1.71a9.967,9.967,0,0,1,1.149.7l.006,0a9.13,9.13,0,0,1,1.116.91,10.225,10.225,0,0,1,2.938,5.135,10.385,10.385,0,0,1,.264,2.259,18.746,18.746,0,0,1-10.4-1.419c-.154-.065-.3-.136-.458-.216a.325.325,0,0,1-.074-.031l-.006,0a.288.288,0,0,1-.094-.049.22.22,0,0,1-.083-.043,3.858,3.858,0,0,1-.354-.169l-.083-.043-.1-.052-.03-.015Z" transform="translate(-2869.497 -1508.398)" fill="#f4b545"/>
                  <path id="Path_58067" data-name="Path 58067" d="M2973.67,1296.542s4.753-11.656,10.947-8.712,9.478,2.694,10.666,3.965-2.951,11.953-4.362,13.721S2973.67,1296.542,2973.67,1296.542Z" transform="translate(-2963.268 -1287.353)" fill="#141643"/>
                  <path id="Path_58068" data-name="Path 58068" d="M2961.58,1513.417l-1.618,3.111a3.246,3.246,0,0,1-5.678-2.954l1.618-3.111a2.425,2.425,0,0,1,1.339-1.147,2.813,2.813,0,0,1,.417-.121,3.2,3.2,0,0,1,.856-.064,3.707,3.707,0,0,1,2.657,1.382,3.191,3.191,0,0,1,.438.736c.006.012.012.027.018.04a2.76,2.76,0,0,1,.124.372A2.426,2.426,0,0,1,2961.58,1513.417Z" transform="translate(-2945.584 -1486.983)" fill="#f4cb95"/>
                  <path id="Path_58069" data-name="Path 58069" d="M2966.318,1356.395l-2.356,4.53a8.376,8.376,0,0,1-8.485,4.421l-.622,1.195a8.267,8.267,0,0,1-2.77-.869l-.607-.316a8.252,8.252,0,0,1-2.3-1.77l.621-1.195a8.377,8.377,0,0,1-1.251-9.486l2.356-4.53a8.374,8.374,0,0,1,11.237-3.518l.607.316a8.3,8.3,0,0,1,3.763,4.01h0A8.346,8.346,0,0,1,2966.318,1356.395Z" transform="translate(-2939.811 -1338.274)" fill="#d8a471"/>
                  <path id="Path_58070" data-name="Path 58070" d="M2966.931,1344.476l-2.961,5.692a8.257,8.257,0,0,1-3.133,3.313c-.2.121-.415.228-.624.328a7.433,7.433,0,0,1-.782.333,8.311,8.311,0,0,1-6.716-.422l-.6-.314a8.363,8.363,0,0,1-3.552-11.255l3.071-5.9a8.341,8.341,0,0,1,5.4-4.057,7.689,7.689,0,0,1,1.066-.176,8.263,8.263,0,0,1,4.678.893l.6.314a8.1,8.1,0,0,1,2.844,2.445,6.59,6.59,0,0,1,.415.607,7.83,7.83,0,0,1,.426.787A8.336,8.336,0,0,1,2966.931,1344.476Z" transform="translate(-2939.824 -1327.515)" fill="#f4cb95"/>
                  <g id="Group_46667" data-name="Group 46667" transform="translate(24.009 16.992)">
                    <path id="Path_58071" data-name="Path 58071" d="M3114.46,1462.037a3.343,3.343,0,0,1-4.508,1.423l3.085-5.932a3.328,3.328,0,0,1,1.037.838.013.013,0,0,1,0,0A3.343,3.343,0,0,1,3114.46,1462.037Z" transform="translate(-3109.952 -1457.528)" fill="#edc28e"/>
                    <path id="Path_58072" data-name="Path 58072" d="M3118.625,1471.63a2.07,2.07,0,0,1-2.792.881l1.911-3.673A2.07,2.07,0,0,1,3118.625,1471.63Z" transform="translate(-3115.246 -1467.709)" fill="#d8a471"/>
                  </g>
                  <g id="Group_46668" data-name="Group 46668" transform="translate(6.794 8.596)">
                    <path id="Path_58073" data-name="Path 58073" d="M2942.427,1373.818l-3.086,5.932a3.344,3.344,0,0,1,2.381-6.2c.051.013.1.028.153.045l.08.028A3.247,3.247,0,0,1,2942.427,1373.818Z" transform="translate(-2937.542 -1373.44)" fill="#edc28e"/>
                    <path id="Path_58074" data-name="Path 58074" d="M2950.524,1387.306a2.07,2.07,0,0,0,.881,2.792l1.911-3.673A2.07,2.07,0,0,0,2950.524,1387.306Z" transform="translate(-2949.018 -1384.918)" fill="#d8a471"/>
                  </g>
                  <path id="Path_58075" data-name="Path 58075" d="M3080.422,1371.258l-2.961,5.691a8.259,8.259,0,0,1-3.133,3.313c-.2.121-.415.228-.624.328,7.055-9.966,6.063-12.458,3.5-13.763-2.747-1.411-1.617-5.105-1.617-5.105l4.536,1.333a7.769,7.769,0,0,1,.426.787A8.336,8.336,0,0,1,3080.422,1371.258Z" transform="translate(-3053.316 -1354.297)" fill="#e5b67f"/>
                  <path id="Path_58076" data-name="Path 58076" d="M2958.854,1573.848l.078,1.608-4.3,1.707c-.154-.065-.3-.136-.458-.215a.325.325,0,0,1-.074-.031l-.006,0a.285.285,0,0,1-.094-.049l4.9-4.1.012-.009.808-.674.009,0,.081-.07.8-1.534.188,3.487-1.843-.1Z" transform="translate(-2945.563 -1542.203)" fill="#cc8e2b"/>
                  <path id="Path_58077" data-name="Path 58077" d="M2944.777,1558.786l.083.043a3.714,3.714,0,0,0,.354.169.219.219,0,0,0,.082.043.285.285,0,0,0,.094.049l.006,0,.673-.4,3.6-2.168.494-.95,1.028-.3.327-1.464a3.446,3.446,0,0,1-.312.183l-.018.006-.006.012a6.9,6.9,0,0,1-3.15.911,4.091,4.091,0,0,1-.879-.1,4.306,4.306,0,0,1-.758-.949,6.736,6.736,0,0,1-.872-2.823v-.015a3.548,3.548,0,0,1-.03-.36l-1.011,1.108.341,1.017-.494.95.251,3.61.092,1.367,0,.009Z" transform="translate(-2936.859 -1524.38)" fill="#fff"/>
                  <path id="Path_58078" data-name="Path 58078" d="M2958.21,1572.1l-.023,1.6-4.757,1.492a.33.33,0,0,1-.074-.031l-.006,0a.284.284,0,0,1-.094-.049.22.22,0,0,1-.083-.043l4.707-3.932,0-.006,1.261-1.054.006-.012.018-.006.8-1.534.087,3.682-1.843-.306Z" transform="translate(-2944.818 -1540.448)" fill="#e09f36"/>
                  <path id="Path_58079" data-name="Path 58079" d="M2933.571,1549.87a3.3,3.3,0,0,1-.319-.181l-.006,0-1.191-4.586,1.361-.859-.064-.078-1.143-1.449,2.963-1.848-.7,1.34-.1.195v.015l-.007.056v.015l-.092,1.084,0,.006-.546,6.382-.1-.052-.03-.015Z" transform="translate(-2925.81 -1515.553)" fill="#cc8e2b"/>
                  <path id="Path_58080" data-name="Path 58080" d="M2933.571,1548.114l-1.515-4.77,1.3-.937.166-.116-1.309-1.333,3.064-2.042-.1.195-.7,1.339v.015l-.139,1.652,0,.006-.524,6.123-.083-.043-.1-.052-.029-.015Z" transform="translate(-2925.809 -1513.797)" fill="#e09f36"/>
                  <path id="Path_58081" data-name="Path 58081" d="M3020.322,1324.274a43.892,43.892,0,0,0-3.839-3.417,14.43,14.43,0,0,0-3.285-1.165,15.765,15.765,0,0,0-4.542.032l-.8.555a2.916,2.916,0,0,0-.762.33c-.048.066-.219.272-.375.459l-.66.458c.055.007.183.031.345.05l-.125.7a7.227,7.227,0,0,1,2.936-.715c1.918.262,4.172,1.248,5.126,3.181,1.732,3.512,7.578,5.03,7.578,5.03Z" transform="translate(-2992.424 -1316.312)" fill="#25285c"/>
                </g>
              </g>
              <path id="Path_58082" data-name="Path 58082" d="M3563.4,1919.111h0a3.957,3.957,0,0,1-1.673-5.323h0a3.957,3.957,0,0,1,5.323-1.673h0a3.957,3.957,0,0,1,1.674,5.323h0A3.958,3.958,0,0,1,3563.4,1919.111Z" transform="translate(-3441.927 -1842.219)" fill="#a5b6ff"/>
              <path id="Path_58083" data-name="Path 58083" d="M3668.994,1974.194h0a3.957,3.957,0,0,1-1.674-5.323h0a3.957,3.957,0,0,1,5.323-1.673h0a3.957,3.957,0,0,1,1.673,5.323h0A3.957,3.957,0,0,1,3668.994,1974.194Z" transform="translate(-3536.973 -1891.803)" fill="#d1daff"/>
            </g>
            <path id="Path_58084" data-name="Path 58084" d="M1774.106,1327.153,1650.5,1309.845a7.869,7.869,0,0,0-9,6.318l-23.119,147.82a7.57,7.57,0,0,0,6.677,8.513l123.608,17.308a7.868,7.868,0,0,0,9-6.318l2.28-14.759,4.726,2.5,16.114-135.559A7.57,7.57,0,0,0,1774.106,1327.153Z" transform="translate(-1423.123 -1138.227)" fill="#3a7ec1" opacity="0.2" style="mix-blend-mode: multiply;isolation: isolate"/>
            <path id="Path_58085" data-name="Path 58085" d="M2525.1,2253.441c-.343,1.172-32.218,110.511-2.658,95.57,0,0,0,0,.007,0-7.12,7.708-14.839,8.747-18.946,8.646a.015.015,0,0,1-.017,0h-.035a15.28,15.28,0,0,1-2.9-.314l-3.69-.6-25.667-4.183q.11-1.564.227-3.165c1.85-25.912,4.1-58.4,4.1-58.4l49.582-37.562S2525.1,2253.438,2525.1,2253.441Z" transform="translate(-2190.858 -1987.672)" fill="#2b45b1"/>
            <g id="Group_46676" data-name="Group 46676" transform="translate(200.776 165.921)">
              <path id="Path_58086" data-name="Path 58086" d="M1829.154,1279.594l-22.015,148.767a7.544,7.544,0,0,1-8.567,6.358l-5.889-.872-36.991-5.474-74.825-11.073a7.545,7.545,0,0,1-6.358-8.568l22.015-148.767a7.544,7.544,0,0,1,8.567-6.358l117.706,17.418A7.545,7.545,0,0,1,1829.154,1279.594Z" transform="translate(-1674.426 -1253.526)" fill="#fff"/>
              <path id="Path_58087" data-name="Path 58087" d="M2546.8,1565.75l-56.325-8.335,3.909-26.416,56.325,8.335ZM2493.46,1555.2l51.122,7.565,3.139-21.212-51.122-7.565Z" transform="translate(-2408.993 -1503.293)" fill="#ecf3fe"/>
              <path id="Path_58088" data-name="Path 58088" d="M2487.223,1862.243h0a3.958,3.958,0,0,1-3.326-4.481h0a3.957,3.957,0,0,1,4.481-3.325h0a3.957,3.957,0,0,1,3.326,4.481h0A3.957,3.957,0,0,1,2487.223,1862.243Z" transform="translate(-2403.035 -1794.399)" fill="#c8d9f5"/>
              <path id="Path_58089" data-name="Path 58089" d="M2605.033,1879.678h0a3.958,3.958,0,0,1-3.326-4.481h0a3.958,3.958,0,0,1,4.481-3.325h0a3.957,3.957,0,0,1,3.326,4.481h0A3.958,3.958,0,0,1,2605.033,1879.678Z" transform="translate(-2509.083 -1810.093)" fill="#c8d9f5"/>
              <path id="Path_58090" data-name="Path 58090" d="M2722.843,1897.112h0a3.958,3.958,0,0,1-3.326-4.481h0a3.957,3.957,0,0,1,4.481-3.325h0a3.957,3.957,0,0,1,3.325,4.481h0A3.957,3.957,0,0,1,2722.843,1897.112Z" transform="translate(-2615.13 -1825.786)" fill="#c8d9f5"/>
              <path id="Path_58091" data-name="Path 58091" d="M2840.653,1914.546h0a3.957,3.957,0,0,1-3.326-4.481h0a3.957,3.957,0,0,1,4.481-3.326h0a3.958,3.958,0,0,1,3.325,4.481h0A3.957,3.957,0,0,1,2840.653,1914.546Z" transform="translate(-2721.177 -1841.479)" fill="#ecf3fe"/>
              <path id="Path_58092" data-name="Path 58092" d="M2958.463,1931.98h0a3.957,3.957,0,0,1-3.325-4.481h0a3.957,3.957,0,0,1,4.48-3.325h0a3.957,3.957,0,0,1,3.326,4.481h0A3.958,3.958,0,0,1,2958.463,1931.98Z" transform="translate(-2827.224 -1857.173)" fill="#ecf3fe"/>
              <path id="Path_58093" data-name="Path 58093" d="M1968.1,1975.695l-50.41-7.46a3.381,3.381,0,0,1-2.849-3.839h0a3.381,3.381,0,0,1,3.839-2.849l50.41,7.46a3.381,3.381,0,0,1,2.85,3.839h0A3.381,3.381,0,0,1,1968.1,1975.695Z" transform="translate(-1890.804 -1890.819)" fill="#d9e5f8"/>
              <path id="Path_58094" data-name="Path 58094" d="M2133.732,2148.922,2046.441,2136a3.381,3.381,0,0,1-2.849-3.839h0a3.381,3.381,0,0,1,3.839-2.849l87.291,12.918a3.381,3.381,0,0,1,2.85,3.839h0A3.381,3.381,0,0,1,2133.732,2148.922Z" transform="translate(-2006.699 -2041.837)" fill="#ecf3fe"/>
              <path id="Path_58095" data-name="Path 58095" d="M1976.916,2274.433l-102.3-15.138a3.381,3.381,0,0,1-2.849-3.839h0a3.381,3.381,0,0,1,3.839-2.85l102.3,15.139a3.381,3.381,0,0,1,2.85,3.839h0A3.38,3.38,0,0,1,1976.916,2274.433Z" transform="translate(-1852.033 -2152.817)" fill="#ecf3fe"/>
              <path id="Path_58096" data-name="Path 58096" d="M1955.38,2419.963l-102.3-15.138a3.381,3.381,0,0,1-2.849-3.839h0a3.381,3.381,0,0,1,3.839-2.85l102.3,15.138a3.381,3.381,0,0,1,2.849,3.839h0A3.381,3.381,0,0,1,1955.38,2419.963Z" transform="translate(-1832.646 -2283.816)" fill="#ecf3fe"/>
              <path id="Path_58097" data-name="Path 58097" d="M1914.274,2562.6l-82.727-12.243a3.381,3.381,0,0,1-2.85-3.839h0a3.38,3.38,0,0,1,3.839-2.849l82.727,12.242a3.381,3.381,0,0,1,2.849,3.839h0A3.381,3.381,0,0,1,1914.274,2562.6Z" transform="translate(-1813.261 -2414.816)" fill="#ecf3fe"/>
              <path id="Path_58098" data-name="Path 58098" d="M1912.307,2711.023l-102.3-15.138a3.381,3.381,0,0,1-2.849-3.839h0a3.381,3.381,0,0,1,3.839-2.85l102.3,15.138a3.381,3.381,0,0,1,2.849,3.839h0A3.381,3.381,0,0,1,1912.307,2711.023Z" transform="translate(-1793.875 -2545.815)" fill="#ecf3fe"/>
              <g id="Group_46675" data-name="Group 46675" transform="translate(20.236 10.073)">
                <circle id="Ellipse_175" data-name="Ellipse 175" cx="21.801" cy="21.801" r="21.801" transform="translate(0 30.831) rotate(-45)" fill="#ecf3fe"/>
                <g id="Group_46674" data-name="Group 46674" transform="translate(17.83 13.956)">
                  <path id="Path_58099" data-name="Path 58099" d="M2065.536,1774.943a3.284,3.284,0,0,1-.359-.066h-.007a18.575,18.575,0,0,1-9.5-4.778,10.261,10.261,0,0,1,7.028-4.288h.006a9.1,9.1,0,0,1,1.433-.084,9.957,9.957,0,0,1,1.345.1l3.653.536a9.948,9.948,0,0,1,1.312.286h.007a9.12,9.12,0,0,1,1.348.493,10.193,10.193,0,0,1,4.443,3.875,10.388,10.388,0,0,1,.987,2.041,18.684,18.684,0,0,1-10.252,2.06c-.166-.011-.331-.029-.5-.054a.326.326,0,0,1-.08-.005h-.007a.288.288,0,0,1-.1-.015.218.218,0,0,1-.092-.014,3.765,3.765,0,0,1-.389-.044l-.092-.013-.111-.016-.033-.005Z" transform="translate(-2055.668 -1738.611)" fill="#343448"/>
                  <path id="Path_58100" data-name="Path 58100" d="M2097.2,1505.995s.668-12.527,7.461-11.779,9.8-.559,11.337.249,1.126,12.218.375,14.344S2097.2,1505.995,2097.2,1505.995Z" transform="translate(-2093.049 -1494.184)" fill="#302f2f"/>
                  <path id="Path_58101" data-name="Path 58101" d="M2144.683,1728.227l-.507,3.458a3.235,3.235,0,0,1-6.312-.927l.508-3.457a2.418,2.418,0,0,1,.886-1.518,2.758,2.758,0,0,1,.353-.25,3.19,3.19,0,0,1,.785-.34,3.692,3.692,0,0,1,2.954.433,3.186,3.186,0,0,1,.653.55c.01.01.02.021.029.032a2.724,2.724,0,0,1,.238.31A2.417,2.417,0,0,1,2144.683,1728.227Z" transform="translate(-2129.635 -1702.006)" fill="#f4b698"/>
                  <path id="Path_58102" data-name="Path 58102" d="M2116.372,1557.6l-.739,5.035a8.347,8.347,0,0,1-6.545,6.934l-.195,1.328a8.23,8.23,0,0,1-2.892.087l-.675-.1a8.226,8.226,0,0,1-2.745-.914l.195-1.328a8.348,8.348,0,0,1-4.276-8.522l.739-5.035a8.344,8.344,0,0,1,9.431-6.982l.675.1a8.268,8.268,0,0,1,4.853,2.546h0A8.318,8.318,0,0,1,2116.372,1557.6Z" transform="translate(-2094.144 -1542.635)" opacity="0.28"/>
                  <path id="Path_58103" data-name="Path 58103" d="M2116.573,1544.352l-.928,6.326a8.231,8.231,0,0,1-1.868,4.143c-.151.18-.316.35-.48.513a7.387,7.387,0,0,1-.628.569,8.283,8.283,0,0,1-6.461,1.8l-.67-.1a8.336,8.336,0,0,1-7.021-9.437l.963-6.562a8.314,8.314,0,0,1,3.759-5.584,7.62,7.62,0,0,1,.947-.514,8.235,8.235,0,0,1,4.7-.687l.67.1a8.066,8.066,0,0,1,3.476,1.373,6.492,6.492,0,0,1,.589.436,7.717,7.717,0,0,1,.658.6A8.307,8.307,0,0,1,2116.573,1544.352Z" transform="translate(-2094.159 -1530.68)" fill="#f4b698"/>
                  <g id="Group_46672" data-name="Group 46672" transform="translate(21.444 13.705)">
                    <path id="Path_58104" data-name="Path 58104" d="M2274.22,1635.224a3.332,3.332,0,0,1-3.78,2.812l.968-6.593a3.317,3.317,0,0,1,1.25.451l.005,0A3.332,3.332,0,0,1,2274.22,1635.224Z" transform="translate(-2270.44 -1631.443)" fill="#f4b698"/>
                    <path id="Path_58105" data-name="Path 58105" d="M2274.624,1646.356a2.063,2.063,0,0,1-2.341,1.741l.6-4.082A2.063,2.063,0,0,1,2274.624,1646.356Z" transform="translate(-2272.099 -1642.76)" fill="#e29586"/>
                  </g>
                  <g id="Group_46673" data-name="Group 46673" transform="translate(1.465 11.157)">
                    <path id="Path_58106" data-name="Path 58106" d="M2074.151,1605.958l-.968,6.593a3.332,3.332,0,0,1,.216-6.618c.052,0,.105-.008.158-.008h.084A3.2,3.2,0,0,1,2074.151,1605.958Z" transform="translate(-2070.336 -1605.925)" fill="#f4b698"/>
                    <path id="Path_58107" data-name="Path 58107" d="M2083.061,1620.37a2.063,2.063,0,0,0,1.742,2.341l.6-4.082A2.063,2.063,0,0,0,2083.061,1620.37Z" transform="translate(-2081.771 -1617.34)" fill="#e29586"/>
                  </g>
                  <path id="Path_58108" data-name="Path 58108" d="M2211.073,1562.355l-.928,6.326a8.235,8.235,0,0,1-1.868,4.143c-.151.18-.316.35-.48.513,3.387-11.688,1.639-13.71-1.2-14.1-3.047-.432-3.19-4.279-3.19-4.279l4.707-.227a7.824,7.824,0,0,1,.658.6A8.308,8.308,0,0,1,2211.073,1562.355Z" transform="translate(-2188.66 -1548.683)" fill="#eaa78c"/>
                  <path id="Path_58109" data-name="Path 58109" d="M2133.157,1787.4l.092.014a3.833,3.833,0,0,0,.389.044.217.217,0,0,0,.092.013.278.278,0,0,0,.1.015h.007l.5-.6,2.683-3.218.155-1.056.868-.623-.17-1.486a3.439,3.439,0,0,1-.235.274l-.015.011,0,.013a6.879,6.879,0,0,1-2.669,1.886,4.07,4.07,0,0,1-.86.2,4.277,4.277,0,0,1-1.024-.646,6.706,6.706,0,0,1-1.742-2.373l0-.014a3.4,3.4,0,0,1-.146-.33l-.59,1.374.653.846-.155,1.056,1.416,3.317.532,1.257.005.008Z" transform="translate(-2123.112 -1751.031)" fill="#fff"/>
                  <path id="Path_58110" data-name="Path 58110" d="M2164.855,1778.971l.5,1.514-3.992,2.958a.32.32,0,0,1-.08,0h-.007a.277.277,0,0,1-.1-.015.222.222,0,0,1-.092-.013l3.148-5.24v-.006l.843-1.4,0-.013.015-.011.251-1.705,1.284,3.438-1.835.313Z" transform="translate(-2150.556 -1746.987)" fill="#747486"/>
                  <path id="Path_58111" data-name="Path 58111" d="M2121.877,1774.961l-2.984-4,.915-1.306.118-.163-1.667-.828,2.218-2.924-.031.216-.219,1.489,0,.014.408,1.6v.007l1.507,5.936-.092-.013-.111-.016-.033,0Z" transform="translate(-2112.009 -1738.629)" fill="#747486"/>
                  <path id="Path_58112" data-name="Path 58112" d="M2129.017,1524.947a43.787,43.787,0,0,0-4.73-1.964,14.407,14.407,0,0,0-3.474-.024,15.7,15.7,0,0,0-4.266,1.514l-.572.784a2.916,2.916,0,0,0-.609.56c-.024.077-.117.327-.2.554l-.472.647c.054-.012.183-.031.341-.066l.113.7a7.207,7.207,0,0,1,2.53-1.632c1.893-.38,4.336-.188,5.865,1.321,2.778,2.741,8.778,2.261,8.778,2.261Z" transform="translate(-2108.798 -1520.006)" fill="#302f2f"/>
                </g>
              </g>
            </g>
            <path id="Path_58113" data-name="Path 58113" d="M1491.765,2255.8s0-.012-.005-.017c-.989-8.737.573-33.795,25.644-99.668a3.494,3.494,0,0,0-2.7-4.69l-37.032-6.033a5.489,5.489,0,0,0-5.2,2.033l-7.9,10.087a7.682,7.682,0,0,1-7.284,2.846l-80.474-13.11a5.092,5.092,0,0,0-5.569,3.182c-3.038,7.847-9.96,28.127-16.477,64.294l-3,18.4a3.864,3.864,0,0,0,3.193,4.436l134.2,21.863,3.69.6a15.138,15.138,0,0,0,2.9.315C1493.08,2260.223,1492.113,2257.771,1491.765,2255.8Z" transform="translate(-1183.16 -1890.355)" fill="#3a7ec1"/>
            <path id="Path_58114" data-name="Path 58114" d="M1491.765,2255.8s0-.012-.005-.017c-.989-8.737.573-33.795,25.644-99.668a3.494,3.494,0,0,0-2.7-4.69l-37.032-6.033a5.489,5.489,0,0,0-5.2,2.033l-7.9,10.087a7.682,7.682,0,0,1-7.284,2.846l-80.474-13.11a5.092,5.092,0,0,0-5.569,3.182c-3.038,7.847-9.96,28.127-16.477,64.294l-3,18.4a3.864,3.864,0,0,0,3.193,4.436l134.2,21.863,3.69.6a15.138,15.138,0,0,0,2.9.315C1493.08,2260.223,1492.113,2257.771,1491.765,2255.8Z" transform="translate(-1183.16 -1890.355)" fill="#3a7ec1"/>
            <path id="Path_58115" data-name="Path 58115" d="M2540.527,2253.441c-.236.808-15.453,53.007-15.206,80.474l-36.991-5.474c1.388-19.715,2.618-37.45,2.618-37.45l49.583-37.562S2540.527,2253.437,2540.527,2253.441Z" transform="translate(-2206.288 -1987.671)" fill="#3a7ec1" opacity="0.3" style="mix-blend-mode: multiply;isolation: isolate"/>
            <path id="Path_58116" data-name="Path 58116" d="M1517.41,2156.115s0,.007,0,.01c-25.066,65.866-26.626,90.922-25.639,99.658,0,0,0,.01.007.018.346,1.969,1.315,4.421,3.984,4.536a15.243,15.243,0,0,1-2.9-.315l-3.69-.6-25.667-4.183-108.531-17.68a3.86,3.86,0,0,1-3.193-4.434l3-18.4c6.516-36.167,13.437-56.448,16.476-64.3a5.089,5.089,0,0,1,5.568-3.179l24.705,4.026,55.769,9.083a7.68,7.68,0,0,0,7.281-2.844l7.9-10.09a5.493,5.493,0,0,1,5.2-2.032l37.034,6.033A3.493,3.493,0,0,1,1517.41,2156.115Z" transform="translate(-1183.167 -1890.355)" fill="#4a6dff"/>
            <path id="Path_58117" data-name="Path 58117" d="M2346.271,991.9l12.394,33.428-5.8-.859Z" transform="translate(-2078.413 -852.105)" fill="#3a7ec1" opacity="0.2" style="mix-blend-mode: multiply;isolation: isolate"/>
            <path id="Path_58118" data-name="Path 58118" d="M2908.565,1101.686l-5.381-2.807-54.864-13.909-.665,1.275Z" transform="translate(-2529.735 -935.878)" fill="#60629f"/>
            <circle id="Ellipse_176" data-name="Ellipse 176" cx="6.138" cy="6.138" r="6.138" transform="translate(435.313 287.94) rotate(-76.717)" fill="#25d8d1"/>
            <path id="Path_58121" data-name="Path 58121" d="M6.138,0A6.138,6.138,0,1,1,0,6.138,6.138,6.138,0,0,1,6.138,0Z" transform="translate(359.014 108.478)" fill="#4a6dff"/>
            <path id="Path_58119" data-name="Path 58119" d="M1651.746,2282.474l-44.485-6.583a2.238,2.238,0,0,1-1.887-2.542l.269-1.816a2.239,2.239,0,0,1,2.542-1.886l44.485,6.583a2.238,2.238,0,0,1,1.886,2.542l-.269,1.816A2.238,2.238,0,0,1,1651.746,2282.474Z" transform="translate(-1411.472 -2002.246)" fill="#8199ff"/>
            <circle id="Ellipse_178" data-name="Ellipse 178" cx="5.946" cy="5.946" r="5.946" transform="translate(84.375 331.729)" fill="#52d1bd"/>
            <circle id="Ellipse_179" data-name="Ellipse 179" cx="2.572" cy="2.572" r="2.572" transform="translate(133.723 303.256)" fill="#6582fd"/>
            <circle id="Ellipse_180" data-name="Ellipse 180" cx="2.572" cy="2.572" r="2.572" transform="translate(115.723 197.256)" fill="#25d8d1"/>
          </g>
        </g>
      </g>
    </g>
  </g>
</svg>
