<svg xmlns="http://www.w3.org/2000/svg" width="169.974" height="45.118" viewBox="0 0 169.974 45.118">
  <g id="Cryptal" transform="translate(-847.992 -67.452)">
    <g id="Group_3067" data-name="Group 3067" transform="translate(903.399 80.98)">
      <path id="Path_184" data-name="Path 184" d="M2.72-9.006V-19.342q0-4.118,4.118-4.118h7.59l1.211.942v1.1H6.811a1.618,1.618,0,0,0-1.83,1.83v10.82a1.618,1.618,0,0,0,1.83,1.83H15.64v1.1l-1.211.942H6.838Q2.72-4.888,2.72-9.006ZM19.946-4.888V-23.46h8.8q4.118,0,4.118,4.118v2.961q0,3.5-2.988,4.037L33.4-5.426l-.3.538H31.2l-3.741-7.375H22.207v7.375Zm2.261-9.421h6.567a1.618,1.618,0,0,0,1.83-1.83v-3.445a1.618,1.618,0,0,0-1.83-1.83H22.207Zm13.619-8.667.3-.484h1.911l5.06,9.394,5.06-9.394h1.911l.3.484-6.137,11.2v6.89H41.963v-6.89ZM53.86-4.888V-23.46h8.8q4.118,0,4.118,4.118v3.5q0,4.118-4.118,4.118H56.121v6.837Zm2.261-8.882h6.567a1.618,1.618,0,0,0,1.83-1.83v-3.984a1.618,1.618,0,0,0-1.83-1.83H56.121Zm13.458-7.644V-23.46H84.221v2.046H78.031V-4.888H75.77V-21.414Z" transform="translate(-2.72 23.46)" fill="#fff"/>
      <path id="Path_183" data-name="Path 183" d="M.68-5.373,6.763-23.46h3.714L16.56-5.373l-.323.484H14.38L12.846-9.571H4.394L2.86-4.888H1Zm4.387-6.244h7.106l-3.23-9.8H8.3ZM20.059-4.888V-23.46H22.32V-6.934h9.044v2.046Z" transform="translate(83.203 23.46)" fill="#fff"/>
    </g>
    <g id="Group_3066" data-name="Group 3066" transform="translate(847.992 67.452)">
      <path id="Path_161" data-name="Path 161" d="M0-9,18.963,1.535V26.819L0,16.284Z" transform="translate(0 18.298)" fill="#6582fd"/>
      <path id="Path_163" data-name="Path 163" d="M17.332,53.612,36.3,62.04l-20.041,9.3L-2.214,61.214Z" transform="translate(3.834 -53.612)" fill="#4a6dff"/>
      <path id="Path_162" data-name="Path 162" d="M-5.819-15.141,11.037-4.605-5.819,5.93Z" transform="translate(27.153 39.189)" fill="#4a6dff" opacity="0.65"/>
    </g>
  </g>
</svg>
