<svg xmlns="http://www.w3.org/2000/svg" width="19" height="19" viewBox="0 0 19 19">
  <g id="search" transform="translate(0.5 0.5)">
    <g id="Group_43611" data-name="Group 43611">
      <g id="Group_43610" data-name="Group 43610">
        <path id="Path_56951" data-name="Path 56951" d="M8.622,0a8.622,8.622,0,1,0,8.622,8.622A8.632,8.632,0,0,0,8.622,0Zm0,15.652a7.03,7.03,0,1,1,7.03-7.03A7.038,7.038,0,0,1,8.622,15.652Z" fill="#7c7ea8" stroke="#7c7ea8" stroke-width="1"/>
      </g>
    </g>
    <g id="Group_43613" data-name="Group 43613" transform="translate(13.423 13.423)">
      <g id="Group_43612" data-name="Group 43612">
        <path id="Path_56952" data-name="Path 56952" d="M355.389,354.264l-2.985-2.985a.8.8,0,1,0-1.125,1.125l2.985,2.985a.8.8,0,0,0,1.125-1.125Z" transform="translate(-351.046 -351.046)" fill="#7c7ea8" stroke="#7c7ea8" stroke-width="1"/>
      </g>
    </g>
  </g>
</svg>
