<svg xmlns="http://www.w3.org/2000/svg" width="7.081" height="7.081" viewBox="0 0 7.081 7.081">
  <g id="cancel" transform="translate(-188.609 -403.337) rotate(45)">
    <g id="Group_2234" data-name="Group 2234" transform="translate(419.938 148.904)">
      <g id="Path_7604" data-name="Path 7604" transform="translate(2.977 2)" fill="#4a6dff">
        <path d="M 0.6614972352981567 4.776468276977539 C 0.5724472403526306 4.776468276977539 0.4999972283840179 4.704018592834473 0.4999972283840179 4.614968299865723 L 0.4999972283840179 -2.752711534500122 C 0.4999972283840179 -2.841761589050293 0.5724472403526306 -2.914211511611938 0.6614972352981567 -2.914211511611938 C 0.7505472302436829 -2.914211511611938 0.8229972124099731 -2.841761589050293 0.8229972124099731 -2.752711534500122 L 0.8229972124099731 4.614968299865723 C 0.8229972124099731 4.704018592834473 0.7505472302436829 4.776468276977539 0.6614972352981567 4.776468276977539 Z" stroke="none"/>
        <path d="M 0.6614972352981567 -3.414211988449097 C 1.026827216148376 -3.414211988449097 1.322997212409973 -3.118052244186401 1.322997212409973 -2.75271201133728 L 1.322997212409973 4.614967823028564 C 1.322997212409973 4.980307579040527 1.026827216148376 5.276467800140381 0.6614972352981567 5.276467800140381 C 0.296167254447937 5.276467800140381 -2.741813659667969e-06 4.980307579040527 -2.741813659667969e-06 4.614967823028564 L -2.741813659667969e-06 -2.75271201133728 C -2.741813659667969e-06 -3.118052244186401 0.296167254447937 -3.414211988449097 0.6614972352981567 -3.414211988449097 Z" stroke="none" fill="#4a6dff"/>
      </g>
      <g id="Path_7605" data-name="Path 7605" transform="translate(7.984 2.27) rotate(90)" fill="#4a6dff">
        <path d="M 0.6614972352981567 8.190681457519531 C 0.5724472403526306 8.190681457519531 0.4999972283840179 8.118231773376465 0.4999972283840179 8.029181480407715 L 0.4999972283840179 0.6615017056465149 C 0.4999972283840179 0.5724517107009888 0.5724472403526306 0.5000016689300537 0.6614972352981567 0.5000016689300537 C 0.7505472302436829 0.5000016689300537 0.8229972124099731 0.5724517107009888 0.8229972124099731 0.6615017056465149 L 0.8229972124099731 8.029181480407715 C 0.8229972124099731 8.118231773376465 0.7505472302436829 8.190681457519531 0.6614972352981567 8.190681457519531 Z" stroke="none"/>
        <path d="M 0.6614972352981567 1.9073486328125e-06 C 1.026827216148376 1.9073486328125e-06 1.322997212409973 0.2961616516113281 1.322997212409973 0.6615018844604492 L 1.322997212409973 8.029181480407715 C 1.322997212409973 8.394521713256836 1.026827216148376 8.690681457519531 0.6614972352981567 8.690681457519531 C 0.296167254447937 8.690681457519531 -2.741813659667969e-06 8.394521713256836 -2.741813659667969e-06 8.029181480407715 L -2.741813659667969e-06 0.6615018844604492 C -2.741813659667969e-06 0.2961616516113281 0.296167254447937 1.9073486328125e-06 0.6614972352981567 1.9073486328125e-06 Z" stroke="none" fill="#4a6dff"/>
      </g>
    </g>
  </g>
</svg>
