<svg xmlns="http://www.w3.org/2000/svg" width="24.752" height="24.752" viewBox="0 0 24.752 24.752">
  <g id="Support" transform="translate(-1344.193 -89.624)">
    <path id="_3462144" data-name="3462144" d="M15.117,10.553a1.639,1.639,0,1,0,1.639,1.639A1.639,1.639,0,0,0,15.117,10.553Zm-5.708,0a1.639,1.639,0,1,0,1.639,1.639A1.639,1.639,0,0,0,9.409,10.553Z" transform="translate(1344.443 89.874)" fill="#25d8d1"/>
    <path id="_3462144-2" data-name="3462144" d="M12.071,24.252a11.976,11.976,0,0,1-5.416-1.258,3.612,3.612,0,0,0-1.621-.383,4.377,4.377,0,0,0-2.838,1.3A1.311,1.311,0,0,1,0,22.941v-10.7A12.155,12.155,0,0,1,12.126,0,12.094,12.094,0,0,1,24.251,12.245,12.137,12.137,0,0,1,12.083,24.252Zm-4.242-3.6a9.38,9.38,0,0,0,4.243.98,9.562,9.562,0,0,0,9.557-9.41,9.5,9.5,0,1,0-19.007,0s0,8.251,0,8.251a6.294,6.294,0,0,1,2.413-.482A6.226,6.226,0,0,1,7.829,20.65Z" transform="translate(1344.443 89.874)" fill="#25d8d1" stroke="#0c1027" stroke-width="0.5"/>
  </g>
</svg>
