<svg xmlns="http://www.w3.org/2000/svg" width="14.769" height="14.776" viewBox="0 0 14.769 14.776">
  <path id="_website" data-name=" website" d="M-417.3,87.1a7.374,7.374,0,0,1-7.378-7.4,7.338,7.338,0,0,1,7.392-7.376,7.3,7.3,0,0,1,7.378,7.373A7.334,7.334,0,0,1-417.3,87.1Zm2.12-8.032c0-.049.006-.077,0-.1a12.073,12.073,0,0,0-.663-3.591,4.1,4.1,0,0,0-.874-1.519.715.715,0,0,0-1.164,0,3.687,3.687,0,0,0-.756,1.223,10.975,10.975,0,0,0-.746,3.368c-.016.2-.026.409-.039.625Zm-4.228,1.279c0,.045-.007.073-.005.1a12.013,12.013,0,0,0,.674,3.623,4.028,4.028,0,0,0,.874,1.5.713.713,0,0,0,1.152-.006,3.575,3.575,0,0,0,.723-1.145,10.423,10.423,0,0,0,.751-3.127c.03-.31.049-.622.074-.945Zm4.283-6.4a8.631,8.631,0,0,1,.859,2.513c.151.859.252,1.726.378,2.605h2.713a6.039,6.039,0,0,0-1.388-3.289A6.114,6.114,0,0,0-415.123,73.953Zm-4.356,11.491a12.743,12.743,0,0,1-1.173-5.087h-2.754A6.1,6.1,0,0,0-419.479,85.444Zm5.543-5.092a12.766,12.766,0,0,1-1.17,5.1,6.11,6.11,0,0,0,3.921-5.1Zm-6.764-1.281c.125-.875.229-1.741.378-2.6a8.807,8.807,0,0,1,.854-2.515,6.1,6.1,0,0,0-2.537,1.8,6.1,6.1,0,0,0-1.41,3.313Z" transform="translate(424.676 -72.329)" fill="#4a6dff"/>
</svg>
